<svg aria-hidden="true" style="position:absolute;width:0;height:0;overflow:hidden" xmlns="http://www.w3.org/2000/svg"><defs><symbol id="instagram" viewBox="0 0 32 32"><path d="M31.97 9.4a11.7 11.7 0 0 0-.74-3.87 7.84 7.84 0 0 0-1.85-2.84A7.9 7.9 0 0 0 26.6.86l-.06-.02C25.52.44 24.36.18 22.66.1 20.95.02 20.4 0 16.06 0c-4.35 0-4.89.02-6.6.1-1.7.07-2.87.34-3.88.74a7.85 7.85 0 0 0-2.84 1.85A7.9 7.9 0 0 0 .92 5.46l-.02.06A11.7 11.7 0 0 0 .16 9.4c-.09 1.71-.1 2.26-.1 6.6 0 4.35.01 4.9.09 6.6.07 1.7.35 2.87.74 3.88a7.91 7.91 0 0 0 1.85 2.84c.8.81 1.77 1.44 2.84 1.84 1.01.4 2.18.67 3.88.75 1.7.07 2.25.09 6.6.09 4.34 0 4.88-.02 6.59-.1a11.7 11.7 0 0 0 3.88-.74 8.24 8.24 0 0 0 4.66-4.63l.02-.05c.4-1.02.67-2.18.75-3.88.07-1.7.09-2.25.09-6.6s0-4.88-.08-6.6zm-2.88 13.07a8.86 8.86 0 0 1-.55 2.97 5.34 5.34 0 0 1-3 3.03l-.04.01c-.56.22-1.41.48-2.97.55-1.69.07-2.2.1-6.46.1-4.27 0-4.79-.02-6.47-.1a8.78 8.78 0 0 1-2.97-.55 4.95 4.95 0 0 1-1.83-1.2 4.98 4.98 0 0 1-1.19-1.8l-.01-.03a8.84 8.84 0 0 1-.55-2.97c-.07-1.69-.1-2.2-.1-6.46 0-4.27.03-4.79.1-6.47.07-1.56.33-2.4.55-2.97a4.9 4.9 0 0 1 1.2-1.84c.5-.51 1.12-.92 1.8-1.18l.04-.01A8.8 8.8 0 0 1 9.61 3c1.69-.07 2.2-.1 6.46-.1 4.28 0 4.78.03 6.47.1 1.56.07 2.4.33 2.97.55.69.26 1.32.66 1.83 1.2.53.51.94 1.14 1.2 1.83.22.56.48 1.41.55 2.97.07 1.69.1 2.2.1 6.47 0 4.26-.03 4.76-.1 6.45z"/><path d="M16.06 7.78A8.22 8.22 0 0 0 7.84 16a8.22 8.22 0 0 0 16.44.01 8.22 8.22 0 0 0-8.22-8.23zm0 13.55a5.33 5.33 0 0 1 0-10.66 5.33 5.33 0 1 1 0 10.67zM26.52 7.46a1.92 1.92 0 0 1-3.84 0 1.92 1.92 0 0 1 3.84 0z"/></symbol><symbol id="smartphone" viewBox="0 0 32 32"><path d="M23 0H9a3 3 0 0 0-3 3v26a3 3 0 0 0 3 3h14a3 3 0 0 0 3-3V3a3 3 0 0 0-3-3zM9 2h14a1 1 0 0 1 1 1v21H8V3a1 1 0 0 1 1-1zm14 28H9a1 1 0 0 1-1-1v-3h16v3a1 1 0 0 1-1 1z"/><path d="M10.7 27.48a.89.89 0 0 1 0 1.32 1.05 1.05 0 0 1-1.4 0 .89.89 0 0 1 0-1.32 1.05 1.05 0 0 1 1.4 0z"/></symbol><symbol id="envelope" viewBox="0 0 32 32"><path d="M29 4H3a3 3 0 0 0-3 3v18a3 3 0 0 0 3 3h26a3 3 0 0 0 3-3V7a3 3 0 0 0-3-3zm0 2c.14 0 .27.03.38.08L16 17.68 2.62 6.08A.97.97 0 0 1 3 6h26zm0 20H3a1 1 0 0 1-1-1V8.19l13.34 11.57a1 1 0 0 0 1.32 0L30 8.19V25a1 1 0 0 1-1 1z"/></symbol><symbol id="facebook" viewBox="0 0 32 32"><path d="M21.33 5.31h2.92V.22a36.48 36.48 0 0 0-4.1-.22h-.16c-4.2 0-7.1 2.65-7.1 7.52V12H8.26v5.69h4.65V32h5.7V17.69h4.45l.71-5.69H18.6V8.08c0-1.64.45-2.77 2.74-2.77z"/></symbol><symbol id="linkedin" viewBox="0 0 32 32"><path d="M32 32V20.26c0-5.74-1.24-10.16-7.95-10.16-3.22 0-5.39 1.77-6.27 3.45h-.1v-2.92h-6.36V32h6.62V21.42c0-2.79.53-5.48 3.98-5.48 3.4 0 3.45 3.18 3.45 5.66V32H32zM.52 10.63h6.63V32H.53V10.63zM3.84 0A3.84 3.84 0 0 0 0 3.84a3.88 3.88 0 0 0 3.84 3.88c2.12 0 3.85-1.76 3.85-3.88S5.97 0 3.84 0z"/></symbol><symbol id="twitter" viewBox="0 0 32 32"><path d="M32 6.08c-1.1.5-2.38.86-3.71 1.03h-.07a6.56 6.56 0 0 0 2.87-3.58l.01-.04c-1.2.72-2.59 1.27-4.07 1.57l-.09.02A6.54 6.54 0 0 0 15.6 9.55c0 .52.04 1.02.15 1.5A18.57 18.57 0 0 1 2.23 4.2c-.56.95-.9 2.09-.9 3.3v.01a6.57 6.57 0 0 0 2.91 5.45 6.45 6.45 0 0 1-3-.82l.04.01v.08a6.6 6.6 0 0 0 5.21 6.44h.05a6.4 6.4 0 0 1-1.66.22H4.8c-.41 0-.84-.02-1.23-.11a6.62 6.62 0 0 0 6.13 4.57 13.1 13.1 0 0 1-8.13 2.8h-.01c-.54 0-1.05-.03-1.57-.1A18.3 18.3 0 0 0 10 29h.07c12.07 0 18.67-10 18.67-18.67 0-.29-.01-.57-.03-.85a13.2 13.2 0 0 0 3.26-3.35l.03-.05z"/></symbol></defs></svg>