<svg aria-hidden="true" style="position:absolute;width:0;height:0;overflow:hidden" xmlns="http://www.w3.org/2000/svg"><defs><symbol id="client6" viewBox="0 0 32 32"><path d="M16.14 15.63a1 1 0 0 1-.2-.68v-.98c0-.3.07-.53.2-.69s.37-.23.7-.23c.32 0 .54.07.67.2.14.17.21.38.2.59v.23h-.56v-.24c0-.07 0-.15-.02-.23 0-.05-.03-.1-.08-.13a.32.32 0 0 0-.2-.05.34.34 0 0 0-.21.05.26.26 0 0 0-.1.15l-.02.24v1.2c0 .11.02.23.08.33.02.04.06.06.1.08s.1.03.15.02a.3.3 0 0 0 .2-.05.23.23 0 0 0 .08-.15l.02-.24v-.24h.56v.22a.9.9 0 0 1-.2.62c-.12.14-.34.22-.66.22s-.57-.08-.7-.24zM18.47 15.64c-.14-.16-.21-.38-.21-.67v-1.03c0-.3.07-.52.21-.67s.38-.22.7-.22c.34 0 .57.07.71.22s.21.37.21.67v1.03c0 .29-.07.51-.21.67s-.38.23-.7.23c-.33 0-.57-.08-.71-.23zm.97-.25c.05-.1.07-.2.06-.3v-1.27c.01-.1-.01-.2-.06-.3-.03-.03-.07-.06-.12-.08s-.1-.02-.14-.02c-.05 0-.1 0-.15.02s-.09.05-.12.08c-.05.1-.07.2-.06.3v1.27c0 .1.01.21.07.3a.36.36 0 0 0 .26.11c.05 0 .1 0 .14-.03l.12-.07zM20.77 13.08h.6l.45 1.9.46-1.9h.59l.06 2.75h-.44l-.04-1.91-.45 1.9h-.34l-.47-1.9-.04 1.9h-.44l.06-2.74zM23.6 13.08h.94c.54 0 .8.26.8.78 0 .5-.27.75-.84.75h-.32v1.22h-.58v-2.75zm.8 1.18c.06 0 .12 0 .17-.02s.1-.04.15-.07c.07-.1.1-.2.08-.31 0-.09 0-.17-.02-.25l-.05-.08c-.02-.03-.04-.04-.07-.05a.6.6 0 0 0-.26-.05h-.22v.83h.22zM26.18 13.08h.62l.64 2.75h-.54l-.13-.63h-.55l-.13.63h-.55l.64-2.75zm.53 1.8-.21-1.16-.22 1.16h.43zM27.95 13.08h.41l.78 1.57v-1.57h.47v2.75h-.38l-.78-1.64v1.64h-.5v-2.75zM30.74 14.78l-.64-1.7h.54l.39 1.1.37-1.1h.53l-.64 1.7v1.05h-.55v-1.05zM17.04 17.03v.15h-.47v1.11h-.2v-1.11h-.48v-.15h1.15zM18.52 18.3h-.16l-.04-.02a.06.06 0 0 1-.02-.03l-.14-.3h-.65l-.14.3-.02.04a.07.07 0 0 1-.04 0h-.16l.58-1.25h.2l.59 1.25zm-.96-.48h.55l-.24-.5a1 1 0 0 1-.04-.13l-.02.07-.02.05-.23.52zM19.51 18.17a.75.75 0 0 0 .29-.04l.08-.03v-.28h-.25l-.02-.01v-.13h.44v.49a.8.8 0 0 1-.24.1 1 1 0 0 1-.32.04c-.1 0-.2-.02-.29-.05a.7.7 0 0 1-.23-.13.61.61 0 0 1-.15-.2.63.63 0 0 1-.05-.27.58.58 0 0 1 .2-.46.7.7 0 0 1 .23-.13.98.98 0 0 1 .47-.04.81.81 0 0 1 .26.09l.1.06-.06.08-.02.02h-.06a.82.82 0 0 1-.06-.04.58.58 0 0 0-.18-.06.9.9 0 0 0-.15 0 .67.67 0 0 0-.22.03.44.44 0 0 0-.28.26.58.58 0 0 0 0 .41.5.5 0 0 0 .29.26c.07.02.15.03.23.03zM21.36 18.15h.63v.14h-.83v-1.26h.2v1.12zM22.64 18.3h-.2v-1.27h.2v1.26zM23.38 17.04a.1.1 0 0 1 .03.02l.85.95v-.98h.17v1.26h-.1a.1.1 0 0 1-.04 0 .1.1 0 0 1-.03-.03l-.85-.95v.98h-.16v-1.26h.13zM25.89 17.03v.14h-.7v.42h.56v.13h-.57v.43h.7v.14h-.9v-1.26h.9zM5.16 9.24l8.78 2.16v7.54l-8.78-2.15V9.24zM4.6 8.6v8.56l9.9 2.42v-8.55L4.6 8.6z"/><path d="M9.9 23.55 0 21.13v-8.55L9.9 15v8.55zM4.76 9.15l8.67 2.12-3.69 3.19-8.67-2.13 3.7-3.18zM4.6 8.6 0 12.57 9.9 15l4.6-3.97L4.6 8.6zM10.46 23.07l4.04-3.48-4.04-1v4.49z"/></symbol><symbol id="client5" viewBox="0 0 32 32"><path d="M2.42 23.74c.12.14.19.31.18.5 0 .11-.01.23-.06.34s-.13.2-.23.28c-.24.17-.53.25-.83.23H0v-3.15h1.45c.28-.01.56.06.8.21.09.08.16.17.21.27s.07.21.07.32a.7.7 0 0 1-.17.48.8.8 0 0 1-.44.25c.2.03.37.13.5.27zm-1.73-.48h.61c.14.01.28-.02.4-.1.04-.04.08-.09.1-.14s.03-.11.03-.17c0-.05 0-.11-.03-.16s-.06-.1-.1-.14a.64.64 0 0 0-.4-.11H.68v.82zm1.07 1.21c.05-.04.09-.09.11-.14s.04-.12.03-.18c0-.06 0-.12-.03-.18s-.07-.1-.12-.14a.68.68 0 0 0-.42-.11H.7v.86h.65a.7.7 0 0 0 .42-.1zM5.37 25.09l-.8-1.23h-.3v1.23h-.7v-3.15h1.31c.33-.02.66.08.91.27.18.17.3.4.31.64s-.05.47-.21.66a1.1 1.1 0 0 1-.63.32l.86 1.26h-.75zm-1.1-1.66h.56c.4 0 .59-.16.59-.47 0-.07 0-.13-.03-.2s-.07-.11-.12-.16a.66.66 0 0 0-.44-.12h-.57v.95zM9.15 24.46H7.77l-.24.63H6.8l1.27-3.11h.78l1.26 3.11H9.4l-.24-.63zm-.19-.48-.5-1.33-.5 1.33h1zM13.88 25.09h-.69l-1.54-2.14v2.14h-.68v-3.15h.68l1.54 2.16v-2.16h.69v3.15zM17.8 24.34c-.15.24-.36.43-.63.55-.3.14-.63.2-.96.2h-1.22v-3.14h1.22c.33-.01.66.05.96.19.27.12.48.31.62.55a1.7 1.7 0 0 1 0 1.65zm-.8-.08c.2-.2.31-.47.31-.75s-.1-.54-.3-.75a1.26 1.26 0 0 0-.86-.27h-.48v2.04h.48c.31.02.62-.08.86-.27zM9.58 4.45s8.86 3.06 8.67 7.5v7.49s-8.85-3.06-8.67-7.5V4.46zM26.14 17.68c1.67-1.05 3.6-1.7 5.63-1.9v-2.34c-2.33.82-4.3 2.31-5.63 4.24z"/><path d="M25.13 18.4a11.74 11.74 0 0 1 6.64-5.45V6.19s-12.62 4.36-12.35 10.67v10.67s.56-.2 1.44-.56c0-.34 0-.69.04-1.03a10.8 10.8 0 0 1 4.23-7.55z"/><path d="M23.93 22.36c.07-.74.22-1.48.45-2.19a9.87 9.87 0 0 0-2.68 6.45c.72-.32 1.55-.71 2.43-1.17a10.1 10.1 0 0 1-.2-3.1zM24.44 22.4c-.09.93-.04 1.87.15 2.8 3.45-1.9 7.32-4.81 7.17-8.34v-.3a11.79 11.79 0 0 0-6.56 2.8c-.41.97-.67 2-.76 3.03z"/></symbol><symbol id="client4" viewBox="0 0 32 32"><path d="M4.95 13.03c-.9 0-1.64.65-1.64 1.45 0 .8.73 1.45 1.64 1.45.9 0 1.63-.65 1.63-1.45 0-.8-.73-1.45-1.63-1.45zM17.02 12.56c0-1.11-.5-2.18-1.4-2.97s-2.08-1.23-3.33-1.23c-1.26 0-2.46.45-3.35 1.23s-1.38 1.86-1.39 2.97v6.15s9.46-.94 9.46-6.15zM0 20.73c0 .77.35 1.51.97 2.06s1.45.86 2.32.86c.87 0 1.71-.3 2.33-.86s.96-1.29.96-2.06v-4.28S0 17.1 0 20.73zm3.3.76c-.18 0-.35-.04-.49-.13s-.25-.2-.31-.34c-.07-.14-.09-.3-.05-.45s.11-.28.23-.39.28-.18.44-.2c.17-.04.34-.02.5.04s.3.15.39.28a.7.7 0 0 1-.1.97.95.95 0 0 1-.61.23zM9.95 21.07H9.3v.65h-.33v-1.6h1.05v.27H9.3v.41h.64v.27zm1.59-.11c0 .16-.03.3-.09.41s-.13.21-.24.28c-.1.07-.22.1-.36.1a.65.65 0 0 1-.6-.37.95.95 0 0 1-.08-.41v-.08c0-.16.03-.3.08-.42s.14-.21.25-.28c.1-.06.22-.1.35-.1s.26.04.36.1c.1.07.18.16.24.28s.09.26.09.42v.07zm-.34-.07c0-.17-.03-.3-.09-.39s-.14-.13-.26-.13c-.1 0-.2.04-.25.13s-.1.21-.1.38v.08c0 .16.03.29.1.38s.14.14.25.14c.12 0 .2-.05.26-.13s.09-.22.09-.39v-.07zm1.4.41c0-.06-.01-.1-.06-.14s-.12-.07-.23-.1c-.12-.04-.21-.08-.28-.12-.18-.1-.27-.23-.27-.4 0-.08.02-.16.07-.23s.12-.12.21-.16a.8.8 0 0 1 .62.01c.09.04.16.1.2.18s.08.16.08.25h-.33c0-.07-.02-.13-.07-.17s-.1-.06-.2-.06c-.07 0-.14.02-.18.05s-.07.08-.07.14c0 .05.03.1.08.13s.13.07.23.1c.19.05.33.12.41.2s.13.2.13.32c0 .14-.05.25-.16.33s-.24.12-.42.12c-.13 0-.24-.02-.34-.07s-.18-.1-.23-.19a.48.48 0 0 1-.08-.27h.33c0 .18.1.27.32.27.08 0 .14-.02.18-.05s.07-.08.07-.14zm1.78-.91h-.5v1.33h-.33V20.4h-.48v-.27h1.3v.27zm1.15.64h-.63v.43h.74v.26h-1.07v-1.6h1.07v.27h-.74v.38h.63v.26zm.9.1h-.26v.6h-.34v-1.61h.6c.2 0 .34.04.44.13s.16.2.16.35c0 .11-.03.2-.08.28s-.12.13-.21.17l.35.66v.01h-.36l-.3-.58zm-.26-.26h.26c.09 0 .15-.02.2-.06s.06-.1.06-.18c0-.07-.02-.13-.06-.18s-.1-.06-.2-.06h-.26v.48zm2 .29v.56h-.33v-1.6h.63c.12 0 .22.02.31.06s.17.11.22.2c.05.07.07.17.07.27 0 .16-.05.28-.16.37s-.26.14-.45.14h-.29zm0-.27h.3c.08 0 .15-.02.2-.06s.07-.1.07-.18c0-.08-.03-.14-.07-.19s-.11-.07-.2-.07h-.3v.5zm2.1.14h-.64v.43h.75v.26H19.3v-1.6h1.07v.27h-.74v.38h.64v.26zm1.53-.64h-.5v1.33h-.32V20.4h-.49v-.27h1.31v.27zm1.16.64h-.64v.43h.75v.26h-1.08v-1.6h1.07v.27h-.74v.38h.64v.26zm.9.1h-.27v.6h-.33v-1.61h.6c.19 0 .33.04.44.13s.15.2.15.35c0 .11-.02.2-.07.28s-.12.13-.22.17l.35.66v.01h-.35l-.3-.58zm-.27-.26h.27c.08 0 .15-.02.2-.06s.06-.1.06-.18c0-.07-.02-.13-.07-.18s-.1-.06-.2-.06h-.26v.48zm1.95.43c0-.06-.03-.1-.07-.14s-.12-.07-.24-.1l-.27-.12c-.18-.1-.27-.23-.27-.4 0-.08.02-.16.07-.23s.12-.12.21-.16a.8.8 0 0 1 .62.01c.09.04.16.1.2.18s.08.16.08.25h-.33c0-.07-.02-.13-.07-.17s-.11-.06-.2-.06c-.08 0-.14.02-.18.05s-.07.08-.07.14c0 .05.02.1.08.13s.13.07.23.1c.19.05.32.12.41.2s.13.2.13.32c0 .14-.05.25-.16.33s-.25.12-.42.12c-.13 0-.24-.02-.34-.07s-.18-.1-.23-.19a.48.48 0 0 1-.08-.27h.33c0 .18.1.27.32.27.08 0 .14-.02.18-.05s.07-.08.07-.14z"/></symbol><symbol id="client3" viewBox="0 0 32 32"><path d="M5.27 30.3a.1.1 0 0 1 .06.02l.15.15c-.12.12-.27.21-.43.28-.2.07-.41.1-.62.1-.2 0-.4-.03-.58-.1a1.19 1.19 0 0 1-.72-.68 1.37 1.37 0 0 1 0-1.05c.07-.15.17-.3.3-.41.14-.12.3-.2.47-.27a1.83 1.83 0 0 1 1.15 0c.16.05.3.13.42.23l-.13.16-.03.03a.1.1 0 0 1-.05.01c-.02 0-.04 0-.06-.02l-.07-.04-.1-.05a1.14 1.14 0 0 0-.53-.11c-.15 0-.3.02-.43.07a.92.92 0 0 0-.56.52c-.06.13-.08.27-.08.41 0 .15.03.29.08.43a.88.88 0 0 0 .54.51 1.71 1.71 0 0 0 .64.05.94.94 0 0 0 .5-.22.12.12 0 0 1 .08-.02zM9.74 29.55c0 .18-.03.35-.1.52-.06.16-.16.3-.3.41s-.28.2-.45.27c-.38.12-.8.12-1.18 0a1.36 1.36 0 0 1-.46-.27 1.2 1.2 0 0 1-.29-.41 1.36 1.36 0 0 1 0-1.05c.07-.16.17-.3.3-.42.12-.1.28-.2.45-.25.38-.13.8-.13 1.18 0a1.2 1.2 0 0 1 .86 1.2zm-.4 0c0-.14-.02-.29-.08-.42a.86.86 0 0 0-.53-.52c-.28-.09-.58-.09-.86 0a.91.91 0 0 0-.33.2c-.1.1-.16.2-.2.32-.1.27-.1.57 0 .84a.86.86 0 0 0 .53.51c.28.1.58.1.86 0a.87.87 0 0 0 .54-.51c.05-.14.07-.28.07-.42zM12.8 30l.04.08a1.38 1.38 0 0 1 .1-.18l.99-1.57.05-.05h.38v2.54H14v-2.04l-1 1.59c0 .02-.03.04-.05.06s-.06.02-.09.02h-.06c-.03 0-.06 0-.08-.02l-.06-.06-1.02-1.6v2.05h-.34v-2.54h.37a.1.1 0 0 1 .06.05l1.01 1.57.05.1zM16.53 29.86v.96h-.39v-2.54h.87c.16 0 .32.01.48.05.12.03.24.09.34.16.09.07.15.15.2.25.04.1.06.21.06.32a.73.73 0 0 1-.28.58.98.98 0 0 1-.34.17c-.16.04-.31.06-.47.06h-.47zm0-.27H17c.1 0 .2-.01.3-.04a.64.64 0 0 0 .22-.1c.05-.05.1-.11.13-.18a.49.49 0 0 0 .04-.2c0-.08 0-.15-.03-.22s-.08-.12-.14-.17a.83.83 0 0 0-.52-.14h-.47v1.05zM21.74 30.82h-.3c-.04 0-.07 0-.09-.02a.16.16 0 0 1-.05-.06l-.26-.62H19.7l-.27.62a.14.14 0 0 1-.05.06.15.15 0 0 1-.09.02H19l1.16-2.55h.4l1.18 2.55zm-1.92-.94h1.1l-.47-1.04a1.76 1.76 0 0 1-.08-.24l-.05.13-.04.11-.46 1.04zM23.42 28.29c.02 0 .04.03.05.04l1.7 1.92v-1.97h.35v2.54h-.2a.17.17 0 0 1-.14-.06l-1.7-1.92v1.98h-.34v-2.54h.28zM28.38 29.8v1.02h-.4v-1.01l-1.07-1.53h.35c.03 0 .06 0 .08.02.03.01.04.03.06.05l.67 1a1.8 1.8 0 0 1 .12.22l.05-.11a.89.89 0 0 1 .06-.12l.66-1a.28.28 0 0 1 .05-.05.13.13 0 0 1 .09-.02h.35l-1.08 1.54zM12.6 24l.52.05c2.62-1.02 4.83-2.68 6.36-4.78s2.32-4.56 2.26-7.05l-2.88-2.5c.59 2.65.31 5.39-.8 7.91s-2.99 4.73-5.45 6.37z"/><path d="m11.58 23.89.08.01c2.63-1.64 4.64-3.92 5.76-6.56s1.31-5.51.53-8.24l-4.1-3.57c1.66 2.93 2.33 6.21 1.93 9.46s-1.86 6.34-4.2 8.9zM25.5 15.16c-.7 2.74-2.39 5.2-4.83 7.04a15.4 15.4 0 0 1-2.3 1.43c2-.5 3.82-1.4 5.34-2.62s2.71-2.72 3.46-4.4l-1.66-1.44z"/><path d="m24.85 14.76-2.37-2.06c-.04 2.35-.81 4.65-2.22 6.65s-3.42 3.64-5.8 4.75c.54 0 1.07-.03 1.6-.09 2.23-.79 4.2-2.05 5.73-3.66s2.59-3.53 3.06-5.59zM11.92 4.03 9.1 1.56c-2.53.85-4.7 2.35-6.24 4.29S.5 10.09.48 12.45c.01 2.6 1.02 5.12 2.87 7.17s4.43 3.5 7.33 4.13c2.6-2.74 4.12-6.14 4.34-9.68S14.16 7 11.92 4.03zM31.39 14.38c-.01-3.08-1.43-6.04-3.94-8.23s-5.92-3.41-9.47-3.42c-1.65 0-3.28.26-4.8.78l17.31 15.05c.6-1.33.9-2.75.9-4.17z"/></symbol><symbol id="client2" viewBox="0 0 32 32"><path d="M14.22 1.8h-.75a14.18 14.18 0 0 0-.8.01A17.4 17.4 0 0 0 6.2 3.46l-.26.13v13.63l.62-.22a21.16 21.16 0 0 1 6.71-1.18v1.8c-.22 0-.43 0-.65.02h-.05A19.95 19.95 0 0 0 4.17 20V2.54A18.3 18.3 0 0 1 8.96.58c1.47-.38 3-.57 4.51-.58h.27a12.96 12.96 0 0 1 3.16.4v1.76c-.72-.16-1.45-.27-2.18-.33h-.05l-.44-.03zm3.1 1.8a19.35 19.35 0 0 0 5.95-.56c1.6-.4 3.13-1 4.57-1.78v17.16c-1.5.88-3.11 1.53-4.8 1.95-1.47.38-2.98.58-4.5.58-1.16.01-2.31-.12-3.43-.4V3.27a14.28 14.28 0 0 0 2.21.34zm8.74.14-.62.21a21.1 21.1 0 0 1-8.05 1.15l-.5-.04v14.02l.43.04a16.57 16.57 0 0 0 5.29-.48 17.1 17.1 0 0 0 3.18-1.14l.27-.13V3.74zM5.38 25.98a.91.91 0 0 0-.7-.28c-.13 0-.27.02-.4.07a.91.91 0 0 0-.5.52c-.06.12-.08.25-.08.39V29c0 .17.03.33.1.48a.81.81 0 0 0 .55.48c.11.03.23.05.35.05a.97.97 0 0 0 .9-.61.95.95 0 0 0 .06-.37v-.26h-.6v.2c0 .07-.02.15-.04.21a.36.36 0 0 1-.1.13.37.37 0 0 1-.12.07.42.42 0 0 1-.13.02.31.31 0 0 1-.28-.12.55.55 0 0 1-.09-.32V26.8c0-.12.03-.24.08-.35.03-.05.08-.1.13-.12s.11-.03.17-.02c.05 0 .1 0 .15.03s.09.06.12.1c.07.09.1.2.1.31v.2h.6v-.24a1.1 1.1 0 0 0-.27-.73zM9 25.95a1.05 1.05 0 0 0-1.38 0c-.1.1-.18.2-.24.33-.06.14-.09.3-.08.45v2.24c0 .16.02.31.08.46a.9.9 0 0 0 .24.31c.1.09.2.15.32.2a1.08 1.08 0 0 0 .73 0c.12-.05.24-.11.33-.2.1-.09.18-.2.23-.31.07-.15.1-.3.1-.46v-2.24c0-.16-.04-.31-.1-.45a1.02 1.02 0 0 0-.23-.33zm-.28 3.02a.4.4 0 0 1-.12.32.45.45 0 0 1-.58 0 .4.4 0 0 1-.12-.32v-2.24a.4.4 0 0 1 .12-.32.45.45 0 0 1 .58 0 .4.4 0 0 1 .12.32v2.24zM13.76 29.97v-4.24h-.58l-.77 2.24h-.02l-.77-2.24h-.58v4.24h.6v-2.58h.01l.6 1.82h.3l.6-1.82v2.58h.61zM17.2 26.03a.84.84 0 0 0-.34-.24 1.36 1.36 0 0 0-.44-.06h-.9v4.24h.6V28.3h.32c.19.01.37-.03.54-.11a.88.88 0 0 0 .34-.33c.07-.11.11-.24.13-.37a3 3 0 0 0-.02-1.08.9.9 0 0 0-.22-.4zm-.3 1.29c0 .08-.03.15-.06.22a.35.35 0 0 1-.16.15.62.62 0 0 1-.28.05h-.28V26.3h.31c.1 0 .19.02.27.05.07.04.12.1.15.16.03.08.05.16.05.24V27.32zM20.07 25.73h-.5l-.93 4.24h.6l.18-.91h.82l.18.9h.6l-.96-4.23zm-.56 2.75.3-1.54.3 1.54h-.6zM23.97 28.28h-.01l-.91-2.55h-.58v4.24h.6v-2.55h.01l.92 2.55h.57v-4.24h-.6v2.55zM27.66 25.73l-.49 1.69-.5-1.69h-.63l.83 2.45v1.79h.6v-1.8l.83-2.44h-.64zM3.7 31.17h.28v.81h.2v-.81h.3V31h-.79v.17zM6.14 31l-.38.98h.2l.09-.22h.4l.08.22h.21L6.35 31h-.21zm-.03.6.13-.37.14.36H6.1zM8.56 31.62h.23v.13a.38.38 0 0 1-.24.08c-.04 0-.08 0-.11-.02l-.1-.07a.41.41 0 0 1-.07-.26c0-.22.1-.33.28-.33.05 0 .1 0 .14.04s.07.07.09.12l.2-.04c-.05-.2-.19-.29-.43-.29a.5.5 0 0 0-.34.13c-.05.05-.09.1-.11.17s-.04.14-.03.2c0 .14.04.27.13.38a.48.48 0 0 0 .37.14c.15 0 .3-.05.42-.16v-.39h-.43v.17zM11.03 31h-.2v.98h.69v-.17h-.49V31zM13.12 31h-.2v.98h.2V31zM15.16 31.66l-.4-.66h-.2v.98h.19v-.64l.4.64h.2V31h-.19v.66zM17 31.55h.5v-.17H17v-.21h.54V31h-.73v.98h.75v-.16H17v-.27zM21.48 31.39h-.38v-.4h-.2v1h.2v-.44h.38v.43h.2V31h-.2v.39zM23.34 31.55h.5v-.17h-.5v-.21h.53V31h-.73v.98h.75v-.16h-.55v-.27zM25.86 31.55c.17-.03.26-.12.26-.28a.24.24 0 0 0-.1-.21.55.55 0 0 0-.29-.06h-.41v.98h.2v-.41h.03c.05 0 .09 0 .13.02l.07.07.21.32h.24l-.12-.2a.69.69 0 0 0-.22-.23zm-.2-.14h-.14v-.24h.15c.07 0 .14 0 .2.02l.03.04.02.06-.02.06a.11.11 0 0 1-.04.04.55.55 0 0 1-.2.02zM27.76 31.55h.49v-.17h-.49v-.21h.53V31h-.73v.98h.75v-.16h-.55v-.27z"/></symbol><symbol id="client1" viewBox="0 0 32 32"><path d="m6.13 0 4.77 4.52H2.04v21.9H25.2v-8.37l4.77 4.51V0H6.13zm18.85 17.52L11.45 4.7h13.53v12.8zm-4.2 5.7H5.71V8.48h1.06v13.74h14.01v1zM9.27 29.34 8.7 30.5l-.56-1.15h-.47l.82 1.53v.9h.42v-.9l.81-1.53h-.46zm.7 2.42.2-.56h.93l.2.56h.44l-.92-2.42h-.38l-.91 2.42h.44zm.66-1.9.35 1h-.7l.35-1zm2.22.94c-.06.1-.1.2-.1.31 0 .2.08.37.22.5.15.12.34.19.58.19s.44-.07.61-.2l.14.16h.47l-.36-.42c.14-.19.21-.43.21-.73h-.35c0 .16-.03.31-.1.44l-.47-.55.17-.12a.9.9 0 0 0 .25-.25.53.53 0 0 0 .07-.28.5.5 0 0 0-.17-.38.61.61 0 0 0-.43-.16c-.2 0-.35.06-.46.17a.6.6 0 0 0-.18.44c0 .08.02.16.06.25.04.08.1.18.2.3-.18.13-.3.24-.36.33zm1.09.54a.62.62 0 0 1-.38.13c-.12 0-.22-.03-.3-.1s-.1-.16-.1-.27c0-.13.07-.25.2-.35l.05-.04.53.63zm-.43-1.07c-.12-.14-.17-.26-.17-.35 0-.09.02-.15.07-.2s.1-.08.18-.08c.08 0 .14.02.18.06.05.05.08.1.08.16a.3.3 0 0 1-.1.24l-.06.04-.18.13zm3.94 1.31a.88.88 0 0 0 .28-.6h-.42c-.02.17-.07.3-.16.37s-.2.1-.37.1a.47.47 0 0 1-.41-.2c-.1-.14-.14-.34-.14-.6v-.21a1 1 0 0 1 .15-.59.5.5 0 0 1 .42-.2c.16 0 .28.04.36.12.08.07.13.2.15.37h.42c-.03-.26-.12-.47-.28-.61s-.38-.22-.65-.22a.9.9 0 0 0-.87.54c-.08.18-.12.38-.12.6v.23c0 .23.04.42.12.59s.2.3.34.4c.15.08.32.13.51.13.28 0 .5-.08.67-.22zm2.47-.34c.08-.18.12-.39.12-.62v-.14c0-.23-.04-.44-.13-.62a.92.92 0 0 0-.87-.55c-.2 0-.38.05-.53.14a.94.94 0 0 0-.35.42c-.09.18-.13.39-.13.62v.14c0 .23.05.44.13.61.08.18.2.32.35.41.16.1.33.15.53.15s.37-.05.52-.15c.16-.1.27-.23.36-.4zm-.45-1.37c.1.15.15.35.15.62v.13c0 .27-.05.48-.15.62a.5.5 0 0 1-.43.21.5.5 0 0 1-.43-.22c-.1-.14-.16-.35-.16-.61v-.14c0-.26.06-.47.16-.6a.5.5 0 0 1 .43-.22.5.5 0 0 1 .43.21z"/></symbol><symbol id="linkedin" viewBox="0 0 32 32"><path d="M32 32V20.26c0-5.74-1.24-10.16-7.95-10.16-3.23 0-5.39 1.77-6.27 3.45h-.1v-2.92h-6.36V32h6.63V21.42c0-2.79.52-5.48 3.97-5.48 3.4 0 3.45 3.18 3.45 5.66V32H32zM.53 10.64h6.63V32H.53V10.64zM3.84 0C1.72 0 0 1.72 0 3.84s1.72 3.88 3.84 3.88A3.88 3.88 0 0 0 7.7 3.84 3.85 3.85 0 0 0 3.84 0z"/></symbol><symbol id="facebook" viewBox="0 0 32 32"><path d="M21.33 5.31h2.92V.23C23.75.15 22.01 0 19.99 0c-4.2 0-7.1 2.65-7.1 7.52V12H8.26v5.69h4.65V32h5.7V17.69h4.46l.7-5.69H18.6V8.08c0-1.64.45-2.77 2.74-2.77z"/></symbol><symbol id="twitter" viewBox="0 0 32 32"><path d="M32 6.08c-1.19.52-2.46.87-3.78 1.03a6.52 6.52 0 0 0 2.89-3.62 13.11 13.11 0 0 1-4.16 1.59 6.57 6.57 0 0 0-11.2 5.98A18.57 18.57 0 0 1 2.23 4.2a6.57 6.57 0 0 0 2.02 8.77 6.48 6.48 0 0 1-2.97-.81v.07a6.59 6.59 0 0 0 5.26 6.44 6.55 6.55 0 0 1-2.97.1 6.62 6.62 0 0 0 6.13 4.58 13.18 13.18 0 0 1-9.7 2.7A18.47 18.47 0 0 0 10.06 29c12.08 0 18.68-10 18.68-18.67 0-.29-.01-.57-.03-.85 1.3-.92 2.4-2.07 3.29-3.4z"/></symbol><symbol id="instagram" viewBox="0 0 32 32"><path d="M31.97 9.4a11.7 11.7 0 0 0-.74-3.87 7.8 7.8 0 0 0-1.86-2.84A7.87 7.87 0 0 0 26.54.84C25.52.45 24.36.17 22.66.1 20.95.02 20.4 0 16.06 0s-4.89.02-6.6.1C7.76.16 6.6.43 5.58.83a7.8 7.8 0 0 0-2.84 1.85A7.87 7.87 0 0 0 .9 5.52C.5 6.54.23 7.7.16 9.4c-.08 1.71-.1 2.26-.1 6.6s.02 4.9.09 6.6c.08 1.7.35 2.87.74 3.88a7.9 7.9 0 0 0 1.85 2.84c.8.81 1.77 1.44 2.84 1.84 1.02.4 2.18.67 3.88.75 1.7.07 2.25.09 6.6.09s4.88-.02 6.59-.1a11.7 11.7 0 0 0 3.88-.74 8.18 8.18 0 0 0 4.68-4.68c.4-1.02.67-2.18.75-3.88.07-1.7.09-2.25.09-6.6s0-4.89-.08-6.6zm-2.88 13.07a8.76 8.76 0 0 1-.55 2.97 5.31 5.31 0 0 1-3.04 3.04c-.56.22-1.41.48-2.97.55-1.69.07-2.2.1-6.46.1s-4.79-.02-6.47-.1a8.76 8.76 0 0 1-2.97-.55 4.93 4.93 0 0 1-1.84-1.2 4.97 4.97 0 0 1-1.19-1.83 8.81 8.81 0 0 1-.55-2.97c-.07-1.69-.1-2.2-.1-6.47s.03-4.78.1-6.46c.07-1.56.33-2.4.55-2.97.26-.7.66-1.32 1.2-1.84a4.97 4.97 0 0 1 1.84-1.19A8.81 8.81 0 0 1 9.6 3c1.69-.07 2.2-.1 6.46-.1 4.28 0 4.78.03 6.47.1 1.56.07 2.4.33 2.96.55.7.26 1.33.66 1.84 1.2.53.51.94 1.14 1.2 1.83.22.57.48 1.42.55 2.97.07 1.69.1 2.2.1 6.46s-.03 4.77-.1 6.46z"/><path d="M16.06 7.78a8.22 8.22 0 1 0 0 16.45 8.22 8.22 0 0 0 0-16.45zm0 13.55a5.33 5.33 0 1 1 0-10.66 5.33 5.33 0 0 1 0 10.67zM26.52 7.46a1.92 1.92 0 1 1-3.83 0 1.92 1.92 0 0 1 3.83 0z"/></symbol><symbol id="antenna" viewBox="0 0 32 32"><path d="m30.77 22.1-8.44-8.5.94-4.62c.24.1.5.14.75.14h.01a2.16 2.16 0 1 0-2-1.43l-4.97.6L8.97.16A.53.53 0 0 0 8.6 0a.53.53 0 0 0-.37.16l-1.51 1.5c-.2.2-.2.55 0 .75l.81.83a14.94 14.94 0 0 0 2.52 17.66c.05.04.1.08.15.1-.04.18-.05.36-.05.55v6.18h-6.4a2.67 2.67 0 0 0-2.67 2.67v1.07c0 .3.24.53.53.53h24.54c.29 0 .53-.24.53-.53V30.4c0-1.47-1.2-2.66-2.67-2.66h-6.4v-2.75a14.85 14.85 0 0 0 10.09-1.46l.82.82a.53.53 0 0 0 .75 0l1.51-1.5c.2-.2.2-.54 0-.75zM23.28 6.23a1.07 1.07 0 1 1 .75 1.82 1.07 1.07 0 0 1-.75-1.82zm-1.26 3.5-.6 2.95-1.17-1.18 1.78-1.76zm-.6-.9-1.92 1.92L18 9.25l3.4-.41zM24 28.8c.89 0 1.6.72 1.6 1.6v.53H2.14v-.53c0-.88.71-1.6 1.6-1.6H24zm-7.46-2.13v1.06H11.2v-1.06h5.34zM11.2 25.6v-4.05c0-1.3 1.2-2.35 2.67-2.35s2.67 1.05 2.67 2.35v4.05H11.2zm6.4-1.7v-2.35c0-1.89-1.67-3.42-3.73-3.42a3.8 3.8 0 0 0-3.28 1.79A13.87 13.87 0 0 1 8.31 4.03l18.6 18.71a13.82 13.82 0 0 1-9.3 1.16zm11.3-.68L7.83 2.04l.75-.75 7.94 7.98 13.12 13.2-.76.75z"/><path d="M13.88 20.27a1.6 1.6 0 1 0-.01 3.2 1.6 1.6 0 1 0 0-3.2zm.37 1.98c-.1.1-.24.15-.38.15a.53.53 0 0 1 0-1.07.53.53 0 0 1 .37.92z"/></symbol><symbol id="clock" viewBox="0 0 32 32"><path d="M31.3 15.3a15.3 15.3 0 1 0-19.96 14.58l.18.03c.12 0 .24-.03.35-.1.13-.07.23-.2.28-.35L16 17.21a1.91 1.91 0 1 0-.84-3.63l-5.1-5.1a.64.64 0 0 0-.9.9l5.1 5.1c-.4.8-.17 1.77.53 2.31l-3.68 11.67a14.04 14.04 0 1 1 10.57-.35l-.4-1.87a.64.64 0 0 0-1.04-.34l-3.84 3.42a.64.64 0 0 0 .23 1.09l4.9 1.56a.64.64 0 0 0 .82-.74l-.4-1.84A15.26 15.26 0 0 0 31.3 15.3zM16 14.66a.64.64 0 1 1 0 1.28.64.64 0 0 1 0-1.28zm2.1 14.87 2.18-1.95.6 2.84-2.79-.9z"/><path d="M15.35 3.19v1.27a.64.64 0 1 0 1.28 0V3.19a.64.64 0 0 0-1.28 0zM3.88 14.66a.64.64 0 0 0 0 1.28h1.27a.64.64 0 1 0 0-1.28H3.88zM28.1 15.94a.64.64 0 1 0 0-1.28h-1.27a.64.64 0 0 0 0 1.28h1.28z"/></symbol><symbol id="diagram" viewBox="0 0 32 32"><path d="M14.93 14.96h1.06v4.8h-1.06v-4.8zM19.19 17.1h1.07v2.66h-1.07V17.1zM10.66 18.7h1.07v1.06h-1.07V18.7zM7.46 18.16h1.07v1.6H7.46v-1.6z"/><path d="M1.6 28.3h25.59c.88 0 1.6-.73 1.6-1.6v-2.14c0-.88-.72-1.6-1.6-1.6h-.54V9.66l3.03-2.86a1.6 1.6 0 1 0-.75-.76L26.65 8.2V6.97c0-.88-.71-1.6-1.6-1.6H3.73c-.88 0-1.6.72-1.6 1.6v16H1.6c-.88 0-1.6.7-1.6 1.6v2.12c0 .89.72 1.6 1.6 1.6zM30.38 4.83a.53.53 0 1 1 0 1.06.53.53 0 0 1 0-1.06zM3.2 6.97c0-.3.24-.53.53-.53h21.32c.3 0 .54.23.54.53V9.2l-1.07 1.01V8.03c0-.29-.24-.53-.53-.53H4.79c-.29 0-.53.24-.53.53v13.33c0 .3.24.53.54.53h19.19c.3 0 .53-.23.53-.53V11.7l1.07-1.01v12.28H3.19v-16zM8 13.9a1.6 1.6 0 1 0 1.1 2.75l1.86.93c.21.1.47.06.63-.12l3.94-4.44 3.87 2.9c.21.16.5.14.69-.03l3.36-3.2v8.14H5.33V8.57h18.12v2.66l-3.77 3.57-3.9-2.93a.53.53 0 0 0-.72.08l-4 4.49-1.49-.75c.02-.06.02-.13.02-.19 0-.88-.71-1.6-1.6-1.6zm.53 1.6a.53.53 0 1 1-1.07 0 .53.53 0 0 1 1.07 0zm3.2 8.53h5.33v.53c0 .3-.24.53-.53.53h-4.27a.53.53 0 0 1-.53-.53v-.53zm-10.66.53c0-.3.24-.53.53-.53h9.06v.53c0 .88.72 1.6 1.6 1.6h4.26c.89 0 1.6-.72 1.6-1.6v-.53h9.06c.3 0 .54.24.54.53v2.13c0 .3-.24.53-.53.53H1.59a.53.53 0 0 1-.52-.53v-2.13z"/></symbol><symbol id="astronaut" viewBox="0 0 32 32"><path d="M31.97 4.52a.53.53 0 0 0-.43-.36l-1.9-.28-.86-1.73c-.18-.36-.78-.36-.96 0l-.85 1.73-1.91.28a.54.54 0 0 0-.3.91l1.38 1.35-.32 1.9c-.04.2.05.4.21.52.17.12.38.14.56.04l1.71-.9 1.71.9a.54.54 0 0 0 .78-.56l-.33-1.9 1.38-1.35c.15-.14.2-.35.14-.55zm-2.46 1.33a.53.53 0 0 0-.15.47l.19 1.12-1-.53a.53.53 0 0 0-.5 0l-1 .53.2-1.12a.53.53 0 0 0-.16-.47l-.81-.79 1.12-.16a.53.53 0 0 0 .4-.3l.5-1 .5 1c.08.16.23.27.4.3l1.12.16-.8.8zM26.13 20.52h-1.06v1.07h1.06v-1.07zM26.13 22.66h-1.06v1.06h1.06v-1.06zM27.2 21.59h-1.07v1.07h1.07v-1.07zM25.07 21.59H24v1.07h1.07v-1.07zM22.4 26.39h-1.07v1.07h1.07v-1.07zM22.4 28.52h-1.07v1.07h1.07v-1.07zM23.47 27.46H22.4v1.06h1.07v-1.06zM21.33 27.46h-1.06v1.06h1.06v-1.06zM16 24.26h-1.07v1.06H16v-1.06zM16 26.39h-1.07v1.07H16v-1.07zM17.07 25.32H16v1.07h1.07v-1.07zM14.93 25.32h-1.06v1.07h1.06v-1.07zM5.87 6.12H4.8V7.2h1.07V6.12zM5.87 8.26H4.8v1.06h1.07V8.26zM6.93 7.19H5.87v1.07h1.06V7.19zM4.8 7.19H3.73v1.07H4.8V7.19z"/><path d="M24.71 14.16c-.28-.39-.7-.64-1.18-.7-.48-.07-.96.05-1.34.35l-1.26.96-1.9 1.41-1.35-.54A6.94 6.94 0 0 0 14.83 2.4a6.96 6.96 0 0 0-6.96 6.93c0 1.39.42 2.68 1.12 3.76l-2.76-.02H6.2l-.16.03-.03.02h-.02l-3.24 1.6-1.89.9a1.78 1.78 0 0 0 .93 3.3c.3.01.58-.06.84-.2l1.4-.74 2.26-1.17h1.35L2.2 22.2.86 23.55a1.65 1.65 0 0 0 0 2.35 1.67 1.67 0 0 0 2.36 0l1.31-1.3 1.74-1.3.9.89-1.76 1.75-1.34 1.34a1.65 1.65 0 0 0 0 2.36 1.67 1.67 0 0 0 2.36 0l3.48-3.47 1.01-1 .02-.02 5.17-5.66 3.47.5h.07c.07 0 .13-.02.2-.04l.04-.02.06-.03 3.21-2.13.03-.03.04-.03 1.27-1.19c.67-.62.76-1.63.22-2.36zM2.14 17.77a.71.71 0 0 1-.56.05.72.72 0 0 1-.21-1.26l1.31-.63.45 1.31-.99.53zm3.5-1.83-1.55.8-.44-1.28 2.03-1-.04 1.48zm15.1-6.62c0 .92-.22 1.79-.6 2.56l-4.18-1.9a1.86 1.86 0 0 0-.8-1.39l1.47-4.86a5.88 5.88 0 0 1 4.1 5.6zm-11.8 0a5.89 5.89 0 0 1 6.65-5.81l-1.44 4.75h-.05a1.87 1.87 0 1 0 0 3.73c.7 0 1.3-.38 1.62-.95l3.86 1.76A5.9 5.9 0 0 1 8.94 9.32zm5.96.8a.8.8 0 0 1-1.6 0 .8.8 0 0 1 1.6 0zM2.46 25.15a.6.6 0 0 1-.85 0 .6.6 0 0 1 0-.85l.96-.95.85.84-.96.96zm3.22 3.73a.6.6 0 0 1-.86 0 .6.6 0 0 1 0-.84l.97-.96.85.85-.96.95zm3.48-3.47-1.77 1.76-.85-.85 1.76-1.75c.05-.04.07-.09.1-.14l.02-.04c.02-.04.02-.08.03-.13l.01-.07-.02-.1c0-.04 0-.07-.02-.1a.55.55 0 0 0-.09-.14l-.02-.04-1.61-1.6-.06-.04a.5.5 0 0 0-.09-.05.51.51 0 0 0-.09-.04.5.5 0 0 0-.1-.02.5.5 0 0 0-.1 0l-.1.03a.48.48 0 0 0-.1.04l-.06.03-1.77 1.33-.9-.9 2.4-2.39 4.36 4.3-.93.91zm6.82-7.02h-.05a.56.56 0 0 0-.3.08.5.5 0 0 0-.08.06l-.04.03-4.7 5.15-4.33-4.26 2.84-2.82a.53.53 0 0 0-.38-.9H6.72l.03-1.6 3.1.02a6.95 6.95 0 0 0 6.26 1.98c.04.03.08.07.13.09l2.41.96.33 1.64-3-.43zm4.04.18-.31-1.56 1.44-1.08.95 1.26-2.08 1.38zm3.75-2.83-.83.79-.94-1.24.84-.64a.73.73 0 0 1 .54-.14.72.72 0 0 1 .4 1.23z"/><path d="m13.6 18.54-2.14-2.13a.53.53 0 0 0-.75 0l-2.15 2.13a.54.54 0 0 0 0 .76l2.15 2.13a.54.54 0 0 0 .75 0l2.14-2.13a.54.54 0 0 0 0-.76zm-2.52 1.76L9.7 18.92l1.38-1.38 1.39 1.38-1.39 1.38zM17.16 5.07l-.25 1.04c.07.01 1.73.45 1.73 2.15h1.07c0-2.02-1.66-2.97-2.55-3.19zM19.71 9.32h-1.07v1.07h1.07V9.32z"/></symbol><symbol id="envelope" viewBox="0 0 32 32"><path d="M29 4H3a3 3 0 0 0-3 3v18a3 3 0 0 0 3 3h26a3 3 0 0 0 3-3V7a3 3 0 0 0-3-3zm0 2a1 1 0 0 1 .38.08L16 17.68 2.62 6.08A1 1 0 0 1 3 6h26zm0 20H3a1 1 0 0 1-1-1V8.19l13.35 11.57a1 1 0 0 0 1.3 0L30 8.19V25a1 1 0 0 1-1 1z"/></symbol><symbol id="smartphone" viewBox="0 0 32 32"><path d="M23 0H9a3 3 0 0 0-3 3v26a3 3 0 0 0 3 3h14a3 3 0 0 0 3-3V3a3 3 0 0 0-3-3zM9 2h14a1 1 0 0 1 1 1v21H8V3a1 1 0 0 1 1-1zm14 28H9a1 1 0 0 1-1-1v-3h16v3a1 1 0 0 1-1 1z"/><path d="M10.7 27.48c.4.36.4.95 0 1.32s-1.02.36-1.4 0c-.4-.37-.4-.96 0-1.32s1.02-.37 1.4 0z"/></symbol></defs></svg>